<?xml version="1.0" encoding="UTF-8"?>
<svg id="Calque_2" data-name="Calque 2" xmlns="http://www.w3.org/2000/svg" viewBox="0 0 331.26 470.12">
  <defs>
    <style>
      .cls-1 {
        fill: #9f1c2f;
      }

      .cls-1, .cls-2, .cls-3, .cls-4 {
        stroke-width: 0px;
      }

      .cls-2 {
        fill: #f7991e;
      }

      .cls-3 {
        fill: #ea4651;
      }

      .cls-4 {
        fill: #fed300;
      }
    </style>
  </defs>
  <g id="Groupe">
    <path class="cls-3" d="M275.77,340.32c3.68,2.2,7,4.01,9.94,6.43,9.17,7.54,11.78,16.39,8.06,27.62-5.6,16.9-23.83,31.04-41.57,32.06-6.48.37-12.21-1.75-16.92-6.29-1.4-1.36-2.1-1.64-2.68.64-.92,3.6-2.58,6.93-4.62,10.02-.95,1.44-.93,2.67-.55,4.26,3.06,12.84,4.67,25.87,4.69,39.07.01,9.64-1.62,11.75-10.91,14.01-9.18,2.24-18.47,2.53-27.84,1.23-5.71-.79-9.09-4.23-11.29-9.2-3.03-6.84-4.24-14.15-5.17-21.47-.37-2.91-1.37-3.58-4.1-3.37-6.19.47-12.39.07-18.56-.55-2.16-.22-2.77.51-3.01,2.59-.73,6.15-2.08,12.19-3.73,18.17-2.33,8.48-6.88,13.91-16.45,14.34-9.2.41-18.26.2-27.11-2.47-6.17-1.86-7.86-4.14-8.07-10.62-.48-14.43,1.34-28.63,4.83-42.61.52-2.07.5-3.65-.98-5.37-1.92-2.22-3.2-4.9-4.4-7.59-.39-.87-.58-2.04-1.95-.86-9.78,8.4-20.52,7.35-31.15,2.44-13.7-6.33-23.83-16.2-27.83-31.3-2.44-9.22.22-16.92,7.2-23.24,6.07-5.5,13.32-8.92,20.84-11.86,1.61-.63,3.24-1.19,5.12-1.87-.69-1.22-1.83-1.59-2.75-2.2-27.52-17.91-47.95-41.81-61.21-71.92-4.84-10.98-4.12-21.96-1.72-33.2,5.37-25.17,13.35-49.42,24.66-72.6,7.14-14.63,18.64-24.56,32.54-32.27,8.82-4.9,17.94-9.33,25.99-15.53,3.91-3.01,7.16-6.59,9.98-10.65,14.12-20.26,31.48-37.36,51.37-51.89,7.91-5.78,11.15-4.73,15.4,4.24,3.37,7.09,5.27,14.7,7.71,22.12,1.19,3.62,2.39,7.23,4.3,10.54,2.23,3.86,4.03,4.3,7.58,1.65,7.86-5.87,14.76-12.83,21.85-19.57,15.75-14.99,31.16-30.33,47.52-44.67,6.29-5.52,12.66-10.96,19.82-15.36,1.85-1.14,3.74-2.32,5.92-2.64,9.83-1.47,12.79-.41,15.32,6.82,6.7,19.15,15.75,37.49,20.24,57.39,4.83,21.4,3.09,42.4-5.48,62.6-4.36,10.28-11.74,18.74-18.46,27.55-3.69,4.84-7.61,9.51-10.77,14.73-.65,1.07-1.76,2.42-.91,3.57,1.03,1.39,2.62.49,3.88-.04,8.03-3.37,15.31-8.2,23.2-11.86,4.45-2.06,8.93-3.97,13.78-4.84,5.96-1.07,9.41,1.03,10.99,6.79,3.47,12.68,3.51,25.58,2.07,38.51-2.34,20.98-8.1,41.33-11.72,62.08-2.96,17-6.77,33.86-9.71,50.87-1.34,7.72-5.62,12.68-11.93,16.53-5.42,3.31-11.26,5.61-17.24,7.64-1.21.41-2.41.85-4,1.42Z"/>
    <path class="cls-4" d="M175.59,340.25c-20.63-.07-40.95-2.78-60.98-7.5-16.13-3.8-29.78-12.49-42.2-23.14-15.61-13.4-28.27-29.17-36.98-47.91-3.86-8.31-6.62-16.94-6.96-26.27-.37-10.22,3.39-19.18,7.97-27.87,10.84-20.55,25.24-38.46,41.18-55.24,9.23-9.72,18.99-18.82,29.97-26.54,2.22-1.56,4.63-2.85,6.9-4.34,7-4.6,14.61-4.33,22.34-2.79,13.95,2.78,27.86,5.71,41.81,8.44,5.43,1.06,10.94,1.61,16.51,1.48,8.46-.2,14.14-5.52,20.04-10.5,8.47-7.15,16.49-14.85,25.87-20.86,4.04-2.58,8.21-4.9,12.99-5.86,5.77-1.16,10.69,1.03,13.3,6.34,3.89,7.92,3.62,16.45,3.11,24.93-1.17,19.65-5.24,38.94-7.3,58.48-.33,3.12-.26,6.3-.15,9.45.08,2.18.76,4.21,2.28,5.96,13.84,15.88,21.83,34.6,26.28,54.96,4.45,20.37-2.11,37.44-15.99,52.23-17.36,18.49-39.31,28.22-63.7,33.17-11.96,2.43-24.08,3.41-36.28,3.36Z"/>
    <path class="cls-4" d="M223.52,416.67c1.9,5.99,2.75,12,3.32,18,.74,7.87,2.16,15.71,1,23.7-.37,2.55-1.53,3.91-3.79,4.68-8.25,2.83-16.76,3.43-25.39,2.86-1.19-.08-2.37-.33-3.56-.38-4.54-.19-7.49-2.6-9.2-6.63-2.97-6.96-4.09-14.38-5.24-21.79-.25-1.64.31-2.31,2-2.52,3.98-.49,7.95-1.13,11.91-1.82,1.31-.23,3.14-.34,2.68-2.43-.4-1.82-1.87-1.75-3.4-1.49-5.78.98-11.57,1.8-17.43,2.22-15.67,1.14-30.98-.8-46.09-4.85-.93-.25-1.9-.47-2.85-.48-.88-.01-1.36.73-1.4,1.53-.08,1.42.8,2.1,2.09,2.49,5.31,1.59,10.7,2.94,16.19,3.63,2.87.36,3.32,1.45,2.85,4.02-1.17,6.4-2,12.85-4.24,19.03-2.04,5.64-5.36,8.89-11.81,9.33-8.78.6-17.36.2-25.8-2.21-4.46-1.27-5.31-2.29-5.45-6.87-.4-13.54,1.3-26.86,4.28-40.05.44-1.96,1.03-2.11,2.44-.84.63.57,1.42,1.03,2.21,1.34.91.35,1.71.02,2.15-.92.66-1.4-.1-2.28-1.15-3-5.29-3.63-8.69-8.71-11.21-14.5-.84-1.92-.81-3.45.25-5.46,4.9-9.22,4.76-18.57-.35-27.69-1.09-1.95-1.48-3.65-.86-5.82.97-3.44,1.66-6.96,2.45-10.46.31-1.38.84-1.82,2.47-1.56,31.92,4.98,64.05,4.93,96.22,3.74,8.91-.33,17.79-.95,26.63-2.06,1.95-.24,3,.16,3.25,2.36.38,3.45,1.06,6.86,1.6,10.29.3,1.88-.05,3.58-.89,5.33-3.85,8.01-3.93,16.16-.25,24.23.84,1.84.93,3.43.45,5.28-1.74,6.64-4.54,12.66-9.76,17.34-1.12,1-2.7,1.95-1.34,3.73,1.47,1.93,2.62.23,3.81-.56.35-.23.7-.44,1.23-.77Z"/>
    <path class="cls-4" d="M93.67,358.56c-3.31-2.61-6.17-5.11-9.56-6.84-1.48-.76-3.12-1.79-4.21.26-1.1,2.06.93,2.55,2.16,3.25,8.45,4.76,14.42,11.31,16.05,21.28,1.99,12.13-7.62,29.82-26.38,25.15-16.27-4.05-27.82-13.89-33.18-30.07-2.6-7.83-.55-14.8,5.72-20.34,8.02-7.08,17.73-10.74,27.75-13.82,1.08-.33,1.89.02,2.77.47,6.29,3.25,12.85,5.8,19.64,7.78,1.64.48,2.31.99,1.69,2.92-.99,3.09-1.58,6.3-2.45,9.94Z"/>
    <path class="cls-4" d="M234.17,359.91c-.65-3.59-1.2-6.67-1.77-9.74-.35-1.89,1.15-1.47,2.08-1.61,9.54-1.43,19.2-2.44,28.47-5.15,10.69-3.13,16.97,3.84,23.4,9.78,6.14,5.66,5.8,13.18,3.27,20.62-5.02,14.78-22.67,28.23-37.34,28.5-10.79.2-19.71-7.35-21.35-18.08-1.73-11.32,2.92-19.83,11.75-26.43,1.56-1.16,3.3-2.09,5-3.04,1.19-.66,2.02-1.5,1.24-2.84-.68-1.18-1.78-1.41-3.09-.74-3.02,1.53-5.83,3.36-8.35,5.63-.96.86-1.89,1.76-3.33,3.12Z"/>
    <path class="cls-3" d="M298.74,74.73c0-3.8-.04-7.6.03-11.4.02-.95-.66-2.55.94-2.63,1.31-.06,1.49,1.5,1.52,2.52.22,8.02,1.26,16.04.61,24.07-.53,6.58-.51,13.22-1.73,19.74-.24,1.27-.53,2.54-.9,3.78-.21.71-.53,1.59-1.49,1.44-.97-.15-.88-1.08-.94-1.83-.31-3.82.43-7.58.82-11.34.85-8.1,1.32-16.21,1.14-24.35Z"/>
    <path class="cls-3" d="M291.67,97.35c-.92,11.34-2.1,23.29-5.33,34.93-.09.31-.15.64-.28.93-.44.95-.68,2.48-1.98,2.2-1.63-.36-1.02-1.98-.83-3.04,1.28-7.13,2.73-14.24,3.96-21.38.96-5.54,1.62-11.13,1.84-16.77.05-1.21-.35-3.07,1.51-3.02,1.74.05.98,1.82,1.09,2.89.09.86.02,1.73.02,3.25Z"/>
    <path class="cls-3" d="M71.34,123.75c-.72.11-1.22-.07-1.44-.65-.42-1.08.29-1.62,1.09-2.05,3.74-1.98,7.48-3.96,11.24-5.91,7.61-3.95,15.24-7.87,22.86-11.8.48-.25.97-.48,1.47-.71.72-.33,1.5-.63,1.96.32.46.96-.34,1.37-.98,1.75-3.75,2.18-7.44,4.48-11.29,6.48-7.7,4.02-15.48,7.87-23.24,11.79-.58.29-1.18.55-1.66.78Z"/>
    <path class="cls-3" d="M119.93,103.98c-.12,1.17-.89,1.45-1.54,1.8-6.49,3.46-13,6.91-19.5,10.35-1.01.53-2.16.98-2.81-.31-.6-1.18.47-1.71,1.35-2.16,6.55-3.36,13.09-6.73,19.66-10.05.98-.5,2.22-1.1,2.83.37Z"/>
    <path class="cls-2" d="M226.37,221.55c-.47.77-.04,1.1.59,1.51,12.89,8.6,18.84,21.14,20.3,36.14,1.64,16.86-4.62,30.9-15.47,43.37-15.1,17.36-34.41,26.17-56.99,28.57-13.71,1.46-27.25.49-40.71-2.41-10-2.16-18.22-7.52-25.62-14.19-12.56-11.32-22.49-24.69-29.74-40-3.88-8.2-6.53-16.78-7.6-25.8-1.12-9.41,2.34-17.46,7.68-24.9.7-.97,1.34-1.98,2-2.97,1.82-2.07,4.3-1.83,6.64-1.72,17.44.83,32.73,6.96,45.7,18.73,1.6,1.46,3.36,2.61,5.49.99,1.55-1.17,1.5-3.56-.37-5.81-9.16-10.99-20.75-18.29-34.48-22.19-3.34-.95-6.72-1.73-10.19-2.09-1.39-.14-2.86-.21-3.62-1.73,8.05-11.61,16.79-22.67,27.33-32.12,9.37-8.41,19.6-15.35,32.57-17.13,7.85-1.07,15.04.86,22.11,3.82,13.35,5.57,22.45,15.57,29.03,28.12,3.42,6.53,6.54,13.23,10.46,19.5.72,1.15,1.32,2.6,3.12,2.44-.13,1.89-1.84,1.88-3.02,2.41-9.69,4.33-17.89,10.62-24.8,18.64-.57.66-1.13,1.33-1.53,2.1-.73,1.4-.68,2.72.45,3.89,1.13,1.17,2.47,1.26,3.9.66,1.23-.51,2.1-1.51,3.08-2.38,8.63-7.62,18.46-12.97,29.69-15.64,1.3-.31,2.71-1.1,3.98.15Z"/>
    <path class="cls-2" d="M252.5,152.56c-.11,7.1-.95,14.15-4.58,20.61-2.78,4.96-6.93,7.66-12.63,7.8-4.46.11-8.61-1.31-12.47-3.3-5.07-2.62-7.28-8.41-6.03-14.58,1.95-9.61,6.83-17.77,12.75-25.37,3-3.86,6.29-7.47,10.33-10.32,4.67-3.3,7.49-2.5,9.27,2.93,2.36,7.16,3.27,14.57,3.35,22.22Z"/>
    <path class="cls-1" d="M226.37,221.55c-13.03,2.49-24.4,8.24-34.08,17.32-2.75,2.58-5.12,2.93-7.16,1.07-2.25-2.05-2.13-4.47.39-7.42,7.98-9.34,17.65-16.32,29.09-20.82,13.16-4.63,26.59-5.98,40.37-3.35,4.99.95,9.44,3.15,13.74,5.72,2.44,1.46,3.39,3.73,2.47,6.42-.96,2.82-3.15,4.13-6.12,3.64-5.13-.84-10.23-1.9-15.37-2.73-7.78-1.25-15.56-1.22-23.33.15Z"/>
    <path class="cls-1" d="M89.99,207.07c8.28,1.19,16.42,2.86,24.11,6.37,10.05,4.59,18.57,11.13,25.62,19.61,1.85,2.22,1.81,5.12.06,6.76-1.87,1.76-4.51,1.66-6.7-.42-10.37-9.87-22.63-15.97-36.74-18.2-5.12-.81-10.33-1.43-15.53-.31-6.14-.1-11.94,2.03-17.96,2.74-.64.08-1.27.29-1.91.39-3.78.56-6.33-.59-7.34-3.28-1.09-2.9.14-5.27,3.63-7.41,7.17-4.39,15.08-5.92,23.32-6.21,3.14-.11,6.3-.03,9.44-.04Z"/>
    <path class="cls-4" d="M254.53,312.94c-.44-.31-.87-.48-1.09-.79-.45-.66-.11-1.26.41-1.71,1.22-1.07,2.45-2.15,3.73-3.15,9.7-7.6,18.5-16.12,26.42-25.56.79-.94,1.66-3.12,3.17-1.85,1.51,1.26-.48,2.5-1.25,3.46-8.45,10.55-17.67,20.34-28.84,28.1-.79.55-1.65.98-2.56,1.52Z"/>
    <path class="cls-4" d="M244.02,314.83c-.91.05-1.49-.03-1.74-.58-.42-.93.36-1.38.94-1.83,3.16-2.47,6.34-4.91,9.51-7.37,4.88-3.79,9.58-7.8,14.01-12.11.68-.66,1.45-1.69,2.4-.58.73.85-.12,1.59-.72,2.2-6.71,6.94-13.55,13.75-21.85,18.86-.92.56-1.88,1.04-2.55,1.41Z"/>
    <path class="cls-4" d="M50.94,264.53c1.02-.13,1.27.7,1.56,1.36,3.81,8.68,8.82,16.65,14.33,24.33.52.73,1.48,1.63.43,2.55-1.11.97-1.8-.18-2.37-.86-6.31-7.55-10.95-16.1-14.79-25.11-.54-1.27-.08-2.17.85-2.27Z"/>
    <path class="cls-4" d="M70.43,285.83c-.13.25-.24.77-.53.93-.87.47-1.47-.17-1.88-.8-1.59-2.46-3.23-4.9-4.63-7.47-1.24-2.28-2.2-4.72-3.21-7.12-.32-.77-.64-1.78.56-2.16.89-.28,1.45.36,1.74,1.1,2.07,5.16,4.72,10.01,7.61,14.75.11.18.17.4.34.78Z"/>
    <path class="cls-1" d="M162.7,279.6c-2.43.16-4.46-.8-6.2-2.38-4.57-4.13-7.25-9.39-8.9-15.24-.57-2.01.33-3.43,2.08-4.25,1.91-.9,3.15.17,3.9,1.8,1.56,3.39,3.75,6.33,6.14,9.15,1.45,1.71,2.8,2,4.67.47,3.06-2.49,5.51-5.52,8.09-8.44,1.73-1.96,3.62-3.72,6.41-1.95,2.72,1.73,2.08,4.24,1.18,6.68-2.49,6.7-11.6,14.1-17.36,14.16Z"/>
  </g>
</svg>