<?xml version="1.0" encoding="UTF-8"?>
<svg id="Calque_2" data-name="Calque 2" xmlns="http://www.w3.org/2000/svg" viewBox="0 0 305.33 350.92">
  <defs>
    <style>
      .cls-1 {
        fill: #a01d2f;
      }

      .cls-1, .cls-2, .cls-3, .cls-4, .cls-5, .cls-6, .cls-7, .cls-8, .cls-9, .cls-10 {
        stroke-width: 0px;
      }

      .cls-2 {
        fill: #a11f31;
      }

      .cls-3 {
        fill: #f7991c;
      }

      .cls-4 {
        fill: #e94550;
      }

      .cls-5 {
        fill: #fbf7f8;
      }

      .cls-6 {
        fill: #a01e30;
      }

      .cls-7 {
        fill: #fdfaf9;
      }

      .cls-8 {
        fill: #fdfbfa;
      }

      .cls-9 {
        fill: #fcf9fa;
      }

      .cls-10 {
        fill: #fed200;
      }
    </style>
  </defs>
  <g id="Groupe">
    <path class="cls-4" d="M255.19,257.95c3.16,2.75,6.64,5.22,9.43,8.31,8.76,9.72,6.01,23.96-5.61,29.93-5.19,2.67-10.68,1.96-16.13,1.05-12.21-2.03-23.69-6.42-35.17-10.86-.61-.24-1.22-.48-2.02-.79-.66,2.64-1.23,5.2-1.95,7.71-.46,1.59-.88,3.31-1.8,4.62-2.24,3.18-1.79,5.75.15,9.1,5.14,8.87,8.89,18.39,11.47,28.34,1.47,5.67.8,7.4-4.43,10.05-7.46,3.78-15.43,5.61-23.81,5.5-2.97-.04-5.53-1.38-7.05-3.69-3.37-5.11-6.52-10.38-9.39-15.78-1.82-3.43-2.91-7.24-4.49-10.81-.31-.7-1.35-1.54-2.04-1.53-11.23.19-22.21-1.31-32.97-4.52-.23-.07-.49,0-1.07,0,.06,1.37.13,2.74.19,4.11.19,4.97-.59,6.71-5.3,8.39-5.76,2.06-11.67,3.8-17.63,5.24-6.27,1.51-7.62.84-11.07-4.71-5.47-8.77-9.12-18.25-10.68-28.51-.82-5.44,1.03-9.66,5.51-12.69,1.85-1.25,3.95-2.11,5.83-3.32.6-.39,1.28-1.37,1.2-1.99-1.02-7.93.51-15.57,2.43-23.17.12-.47.15-.97.24-1.66-5.65-1.74-11.28-3.43-16.88-5.2-19.73-6.24-39.35-12.81-57.9-22.12-8.77-4.4-16.62-9.97-20.92-19.19-4.5-9.65-4.71-19.36,1.13-28.58,3.75-5.93,9.25-8.93,16.48-8.06.32.04.64,0,1.05,0,.56-2.4.96-4.77,1.67-7.04,1.06-3.43,2.94-6.35,6.15-8.17,5.91-3.35,11.64-.73,12.66,6,.51,3.34.52,6.79.45,10.19-.05,2.05.52,3.41,2.24,4.56,2.11,1.4,4.04,3.05,6.57,4.99-.27-1.25-.31-1.82-.52-2.32-3.83-9.45-3.51-18.82-.4-28.49,5.98-18.6,13.77-36.31,23.8-53.09,6.85-11.46,16.9-18.71,28.94-23.78,6.65-2.8,13.28-5.76,19.56-9.29,3.45-1.94,6.48-4.92,9.15-7.93,12.77-14.37,27.47-26.33,44.12-35.89,4.79-2.75,7.5-1.98,9.27,3.24,2.17,6.43,3.46,13.15,5.2,19.72.72,2.72,1.41,5.48,2.48,8.08,1.26,3.06,2.75,3.57,5.42,1.68,6.99-4.95,13.85-10.07,20.71-15.19,15.31-11.45,30.55-23,45.92-34.38,2.64-1.96,5.75-3.3,8.71-4.81,2.96-1.51,6.13-1.37,9.28-.77,2.55.48,4.06,2.29,4.8,4.61,1.04,3.24,1.9,6.54,2.75,9.83,2.66,10.29,5.68,20.51,7.81,30.91,3.58,17.4,1.25,34.22-6.36,50.31-2.77,5.85-5.3,11.82-7.88,17.76-.46,1.06-.72,2.21-.97,3.35-.95,4.35.81,6,5.16,4.77,1.92-.54,3.78-1.27,5.7-1.8,5.45-1.49,8.48.26,9.77,5.75,1.57,6.64,1.38,13.37.8,20.11-1.06,12.28-4.95,23.85-8.58,35.52-6.22,19.99-12.19,40.05-18.01,60.16-1.62,5.61-4.91,9.38-10.03,11.61-3.72,1.62-7.64,2.78-11.47,4.13-.61.22-1.25.37-1.64.49ZM193.14,252.06c3.15-.3,9.47-.65,15.71-1.54,16.88-2.41,32.3-8.36,45.19-19.87,7.67-6.84,13.56-14.86,15.43-25.27,1.42-7.92.47-15.75-1.26-23.49-2.53-11.27-6.36-22.09-12.94-31.66-1.95-2.84-2.89-5.51-2.41-8.78.34-2.3.67-4.61,1.2-6.87,2.62-11.16,5.43-22.27,7.92-33.46,1.7-7.62,3.16-15.29,2.28-23.2-.93-8.33-6.3-12.13-14.32-9.58-3.53,1.13-7.04,2.66-10.16,4.64-7.72,4.89-15.22,10.14-22.8,15.26-3.34,2.25-6.99,3.72-11.04,3.04-5.63-.94-11.3-1.88-16.79-3.42-9.76-2.73-19.41-5.84-29.06-8.92-5.73-1.83-11.15-1.19-16.41,1.52-2.8,1.45-5.67,2.83-8.31,4.54-20.1,12.99-37.32,29.14-51.9,48.08-2.88,3.74-5.35,7.83-7.81,11.87-7.26,11.88-5.8,24.17-1.39,36.51,4.94,13.83,12.73,25.95,22.6,36.72,8.68,9.47,18.42,17.69,30.69,22.1,20.15,7.24,40.92,11.46,65.57,11.8ZM105.67,246.86c-3.36,8.95-6.43,18.35-6.58,28.37-.13,8.62,2.17,16.44,8.82,22.52.53.49.46,1.65.67,2.49-.84-.07-1.88.13-2.48-.28-1.14-.79-2.26-1.8-2.99-2.96-2.23-3.54-4.28-7.2-6.6-11.16-1.33.72-3.02,1.55-4.63,2.53-3.85,2.32-5.61,5.59-5.01,10.24,1.12,8.73,4.45,16.66,8.37,24.39,1.04,2.05,2.51,3.92,3.99,5.7.54.66,1.75,1.27,2.52,1.14,7.39-1.21,14.68-2.86,21.47-6.19.77-.38,1.89-1.15,1.91-1.78.11-2.72.15-5.5-.41-8.14-.18-.85-2.25-1.3-3.46-1.93-.44-.23-1.06-.35-1.28-.72-.3-.51-.56-1.32-.35-1.78.2-.42,1.02-.73,1.59-.76.53-.03,1.09.35,1.63.56,10.97,4.15,22.29,6.64,34.04,6.83,4.65.07,9.3-.35,13.95-.38.85,0,2.25.65,2.44,1.29.46,1.53-.93,1.56-2.04,1.67-1.28.14-2.56.35-4.31.6,2.23,5.15,4.14,10.02,6.44,14.7,1.75,3.56,3.74,7.08,6.14,10.23,1.3,1.7,3.63,3.58,5.58,3.67,8.53.39,16.64-1.64,24.13-5.88,1.46-.82,2.03-1.89,1.73-3.69-1.31-7.89-4.65-15.06-7.81-22.29-1.58-3.61-3.53-7.05-5.41-10.73-1.65,1.4-2.81,2.64-4.2,3.47-.8.48-1.99.3-3,.42.42-.94.58-2.21,1.3-2.77,7.14-5.62,9.41-13.52,10.8-21.94-3.12-1.42-6.01-2.67-8.85-4.05-1.17-.57-3.16-.95-2.23-2.88.9-1.86,2.33-.42,3.42.05,4.74,2.01,9.39,4.26,14.18,6.15,12.44,4.93,24.95,9.65,38.4,11.2,7.41.85,13.86-2.12,17.31-8.3,3.17-5.67,2.3-12.28-2.38-18.1-3.16-3.92-7.26-6.56-11.79-8.57-.91-.4-2.06-.47-3.07-.39-9.85.81-19.68,2.1-29.55,2.46-16.81.62-33.61-.21-50.29-2.33-13.67-1.74-27.35-3.66-40.89-6.2-7.11-1.34-13.92-4.2-21.22-6.49ZM100.02,253.29c.95-2.63,1.65-4.84,2.56-6.97.56-1.31.16-1.88-.97-2.55-17.63-10.39-31.29-24.84-40.94-42.68-4.56-8.44-10-15.47-18.04-20.52-2.62-1.64-3.03-3.93-2.9-6.85.15-3.53-.06-7.14-.7-10.61-.58-3.11-3.16-4.28-6.13-3.08-1.55.63-3.11,1.7-4.17,2.97-2.79,3.36-3.14,7.59-3.49,11.75-.04.43.26.95.53,1.34,5.65,7.92,6.01,16.9,4.99,26.06-.31,2.75-1.08,5.61-2.32,8.07-3.1,6.12-12.83,6.7-16.91,1.15-.36-.49-.06-1.46-.07-2.21.67,0,1.42-.18,1.98.07,1.28.58,2.39,1.52,3.68,2.06,4.59,1.94,7.81.53,9.37-4.19.67-2.04,1.12-4.19,1.34-6.32.78-7.3.39-14.45-3.34-21.06-1.57-2.78-3.83-4.05-7.01-3.65-5.31.66-9.1,3.54-11.39,8.25-4.6,9.48-3.81,18.69,1.91,27.46,5.37,8.24,13.58,12.79,22.19,16.73,17.02,7.81,34.67,13.95,52.51,19.53,5.69,1.78,11.41,3.46,17.32,5.26Z"/>
    <path class="cls-10" d="M193.14,252.06c-24.65-.33-45.42-4.56-65.57-11.8-12.26-4.4-22.01-12.63-30.69-22.1-9.87-10.77-17.66-22.9-22.6-36.72-4.41-12.34-5.87-24.62,1.39-36.51,2.47-4.04,4.93-8.12,7.81-11.87,14.58-18.94,31.8-35.09,51.9-48.08,2.64-1.71,5.51-3.09,8.31-4.54,5.25-2.71,10.67-3.35,16.41-1.52,9.65,3.08,19.31,6.19,29.06,8.92,5.49,1.54,11.16,2.48,16.79,3.42,4.05.68,7.7-.79,11.04-3.04,7.58-5.11,15.08-10.37,22.8-15.26,3.12-1.98,6.64-3.51,10.16-4.64,8.01-2.55,13.39,1.25,14.32,9.58.88,7.91-.59,15.59-2.28,23.2-2.49,11.19-5.3,22.3-7.92,33.46-.53,2.26-.87,4.57-1.2,6.87-.48,3.27.46,5.95,2.41,8.78,6.58,9.57,10.41,20.39,12.94,31.66,1.74,7.75,2.68,15.57,1.26,23.49-1.87,10.41-7.76,18.43-15.43,25.27-12.89,11.51-28.31,17.46-45.19,19.87-6.24.89-12.55,1.24-15.71,1.54ZM211.78,153.83c-3.13-7.33-5.69-14.97-9.51-21.92-7.74-14.08-19.88-21.82-36.16-22.12-6.91-.13-13.71,1.25-20.25,3.51-20.85,7.2-39.04,18.6-54.37,34.54-3.66,3.81-5.65,8.28-5.38,13.46.37,7.29,2.69,14.15,5.82,20.72,8.25,17.32,19.53,32.43,33.66,45.33,4.01,3.66,8.4,7.35,13.29,9.52,17.5,7.74,35.79,9.51,54.48,4.89,13.9-3.44,25.14-11.16,33.83-22.43,4.79-6.22,7.45-13.39,8.22-21.33.5-5.15.12-10.05-1.56-14.9-.54-3.19-.85-6.43-1.64-9.55-3.24-12.78-9.01-18.28-20.43-19.72ZM248.26,108.09c-.65-4.15-1.11-8.35-2.02-12.44-.67-3.02-1.89-3.45-4.75-2.26-1.29.54-2.56,1.22-3.71,2.02-5.1,3.54-9.4,7.96-12.65,13.2-2.25,3.62-4.21,7.56-5.49,11.61-1.73,5.46.33,9.36,5.42,11.85,1.41.69,2.89,1.26,4.4,1.72,5.44,1.65,10.32-.07,13.44-4.87,4.09-6.31,4.9-13.44,5.36-20.83ZM233.13,235.71c.9-.25,1.54-.41,2.17-.61,6.36-2.01,12.04-5.29,16.88-9.83,2.9-2.71,5.41-5.84,8.01-8.85.36-.42.18-1.3.25-1.97-.61.23-1.24.43-1.83.71-.2.09-.28.4-.43.6-4.2,5.59-9.3,10.2-15.49,13.48-3.07,1.63-6.38,2.8-9.54,4.26-.5.23-.8.88-1.19,1.33.42.32.84.64,1.16.89ZM232.4,232.1c.83-.3,1.59-.43,2.21-.81,4-2.47,7.99-4.95,11.9-7.53.51-.34.62-1.3.91-1.98-.71.11-1.52.02-2.1.35-4.13,2.41-8.21,4.9-12.31,7.36-.42.25-.99.37-1.27.73-.25.32-.34.91-.24,1.31.07.26.61.4.89.57ZM143.75,99.7c-4.5-.32-15.17,5.64-16.89,9.44,5.4-2.77,10.48-5.36,15.53-8.01.46-.24.76-.79,1.36-1.43ZM120.56,106.53c.15.26.3.52.46.78,5.99-3.63,11.99-7.25,17.98-10.88-.16-.26-.32-.53-.47-.79-6.62,2.55-12.49,6.39-17.96,10.89Z"/>
    <path class="cls-10" d="M105.67,246.86c7.3,2.28,14.12,5.15,21.22,6.49,13.54,2.55,27.21,4.47,40.89,6.2,16.68,2.12,33.49,2.95,50.29,2.33,9.87-.36,19.7-1.65,29.55-2.46,1.01-.08,2.16-.02,3.07.39,4.53,2.01,8.64,4.65,11.79,8.57,4.68,5.82,5.55,12.43,2.38,18.1-3.45,6.18-9.9,9.15-17.31,8.3-13.45-1.55-25.96-6.26-38.4-11.2-4.79-1.9-9.43-4.14-14.18-6.15-1.09-.46-2.52-1.91-3.42-.05-.93,1.93,1.05,2.31,2.23,2.88,2.84,1.38,5.73,2.63,8.85,4.05-1.39,8.42-3.66,16.32-10.8,21.94-.72.56-.88,1.83-1.3,2.77,1.01-.12,2.2.06,3-.42,1.4-.83,2.55-2.07,4.2-3.47,1.87,3.69,3.83,7.13,5.41,10.73,3.15,7.23,6.5,14.39,7.81,22.29.3,1.8-.28,2.87-1.73,3.69-7.49,4.23-15.6,6.27-24.13,5.88-1.95-.09-4.28-1.96-5.58-3.67-2.4-3.14-4.39-6.66-6.14-10.23-2.3-4.68-4.21-9.55-6.44-14.7,1.75-.25,3.03-.47,4.31-.6,1.11-.12,2.5-.15,2.04-1.67-.19-.64-1.59-1.29-2.44-1.29-4.65.03-9.3.46-13.95.38-11.75-.19-23.07-2.68-34.04-6.83-.54-.21-1.1-.59-1.63-.56-.57.04-1.39.34-1.59.76-.21.45.05,1.27.35,1.78.21.36.84.49,1.28.72,1.21.63,3.28,1.08,3.46,1.93.55,2.63.52,5.42.41,8.14-.02.63-1.14,1.4-1.91,1.78-6.78,3.33-14.07,4.98-21.47,6.19-.78.13-1.98-.49-2.52-1.14-1.48-1.78-2.95-3.65-3.99-5.7-3.91-7.73-7.25-15.67-8.37-24.39-.6-4.65,1.16-7.92,5.01-10.24,1.61-.97,3.3-1.81,4.63-2.53,2.32,3.96,4.37,7.62,6.6,11.16.73,1.17,1.85,2.18,2.99,2.96.6.42,1.64.21,2.48.28-.21-.85-.13-2.01-.67-2.49-6.65-6.08-8.95-13.9-8.82-22.52.15-10.02,3.22-19.42,6.58-28.37Z"/>
    <path class="cls-10" d="M100.02,253.29c-5.91-1.79-11.63-3.48-17.32-5.26-17.85-5.58-35.49-11.72-52.51-19.53-8.61-3.95-16.82-8.49-22.19-16.73-5.72-8.78-6.51-17.98-1.91-27.46,2.29-4.71,6.08-7.6,11.39-8.25,3.17-.39,5.44.87,7.01,3.65,3.73,6.62,4.12,13.76,3.34,21.06-.23,2.13-.67,4.29-1.34,6.32-1.55,4.72-4.77,6.13-9.37,4.19-1.29-.54-2.4-1.48-3.68-2.06-.56-.25-1.31-.06-1.98-.07,0,.75-.29,1.72.07,2.21,4.09,5.55,13.81,4.96,16.91-1.15,1.25-2.46,2.02-5.31,2.32-8.07,1.02-9.16.66-18.14-4.99-26.06-.27-.38-.57-.91-.53-1.34.35-4.16.69-8.39,3.49-11.75,1.06-1.28,2.62-2.34,4.17-2.97,2.97-1.21,5.55-.04,6.13,3.08.65,3.47.85,7.08.7,10.61-.12,2.92.29,5.2,2.9,6.85,8.04,5.05,13.48,12.08,18.04,20.52,9.65,17.85,23.31,32.29,40.94,42.68,1.13.67,1.53,1.24.97,2.55-.91,2.13-1.61,4.35-2.56,6.97Z"/>
    <path class="cls-3" d="M233.85,183.09c1.68,4.85,2.06,9.75,1.56,14.9-.77,7.95-3.44,15.12-8.22,21.33-8.68,11.27-19.93,19-33.83,22.43-18.68,4.62-36.97,2.85-54.48-4.89-4.89-2.16-9.28-5.85-13.29-9.52-14.13-12.91-25.42-28.02-33.66-45.33-3.13-6.57-5.45-13.42-5.82-20.72-.27-5.17,1.72-9.65,5.38-13.46,15.32-15.94,33.51-27.34,54.37-34.54,6.55-2.26,13.35-3.64,20.25-3.51,16.28.3,28.42,8.04,36.16,22.12,3.82,6.95,6.38,14.59,9.51,21.92-8.28.64-15.62,3.64-21.98,8.97-3.42,2.87-6.48,6.13-7.31,10.69-1.45,7.9-.42,15.56,3.02,22.83,2.24,4.74,5.8,7.81,11.23,8.34,1.73.17,3.44.58,5.18.71,7.4.56,14.76.67,21.86-2.12,5.4-2.12,8.77-5.89,9.51-11.72.35-2.79.39-5.62.57-8.43ZM135.96,153.15c-.77-4.13-1.18-8.38-2.41-12.37-1.64-5.27-5.62-7.08-10.99-5.77-4.35,1.06-7.84,3.58-10.95,6.63-9.29,9.14-12.45,17.68-7.88,30.89,2.4,6.93,6.6,9.54,14.32,9.64,6.83.09,11.55-2.94,14.08-9.37,2.46-6.26,3.12-12.87,3.83-19.64ZM151.66,208.73c8.86-.37,16.41-3.13,22.71-8.98,2.18-2.02,2.65-4.22,1.44-6.21-1.16-1.93-3.11-2.48-5.94-1.51-2.43.83-4.78,1.89-7.21,2.73-3.2,1.11-6.37,2.44-9.68,3.11-7.48,1.51-14.22-2.86-15.05-9.42-.35-2.78-1.61-3.97-4.12-3.91-2.32.05-4,1.63-3.84,4.26.16,2.61.44,5.38,1.47,7.72,3.9,8.84,11.43,11.9,20.2,12.22Z"/>
    <path class="cls-8" d="M233.85,183.09c-.18,2.81-.22,5.64-.57,8.43-.74,5.83-4.11,9.6-9.51,11.72-7.09,2.79-14.45,2.67-21.86,2.12-1.73-.13-3.44-.54-5.18-.71-5.43-.53-8.99-3.61-11.23-8.34-3.44-7.27-4.47-14.93-3.02-22.83.83-4.56,3.9-7.82,7.31-10.69,6.35-5.33,13.7-8.32,21.98-8.97,11.41,1.44,17.19,6.94,20.43,19.72.79,3.12,1.11,6.36,1.64,9.55ZM205.4,163.06c-11.27-.03-19.64,10.46-17.13,21.48,2.32,10.18,12.95,17.04,23.55,15.36,7.26-1.15,12.8-4.45,14.42-12.03,2.46-11.47-3.15-24.5-20.84-24.81Z"/>
    <path class="cls-3" d="M248.26,108.09c-.47,7.39-1.27,14.52-5.36,20.83-3.11,4.8-8,6.52-13.44,4.87-1.5-.46-2.99-1.03-4.4-1.72-5.09-2.49-7.16-6.39-5.42-11.85,1.28-4.05,3.24-7.99,5.49-11.61,3.25-5.24,7.55-9.65,12.65-13.2,1.15-.8,2.41-1.48,3.71-2.02,2.86-1.19,4.08-.76,4.75,2.26.91,4.09,1.37,8.29,2.02,12.44Z"/>
    <path class="cls-10" d="M233.13,235.71c-.33-.25-.74-.57-1.16-.89.39-.46.69-1.11,1.19-1.33,3.16-1.46,6.47-2.63,9.54-4.26,6.18-3.28,11.28-7.88,15.49-13.48.15-.2.24-.5.43-.6.59-.28,1.22-.48,1.83-.71-.07.67.11,1.55-.25,1.97-2.59,3.02-5.11,6.14-8.01,8.85-4.84,4.54-10.52,7.81-16.88,9.83-.63.2-1.27.36-2.17.61Z"/>
    <path class="cls-10" d="M232.4,232.1c-.28-.17-.83-.3-.89-.57-.1-.4-.01-1,.24-1.31.28-.35.85-.47,1.27-.73,4.1-2.46,8.18-4.96,12.31-7.36.57-.33,1.39-.24,2.1-.35-.29.68-.39,1.64-.91,1.98-3.92,2.59-7.91,5.07-11.9,7.53-.62.38-1.39.52-2.21.81Z"/>
    <path class="cls-10" d="M143.75,99.7c-.59.64-.89,1.19-1.36,1.43-5.06,2.64-10.14,5.24-15.53,8.01,1.72-3.8,12.39-9.76,16.89-9.44Z"/>
    <path class="cls-10" d="M120.56,106.53c5.47-4.5,11.34-8.33,17.96-10.89.16.26.32.53.47.79-5.99,3.63-11.99,7.25-17.98,10.88-.15-.26-.3-.52-.46-.78Z"/>
    <path class="cls-7" d="M135.96,153.15c-.71,6.77-1.36,13.38-3.83,19.64-2.53,6.43-7.25,9.46-14.08,9.37-7.72-.11-11.92-2.72-14.32-9.64-4.57-13.21-1.41-21.75,7.88-30.89,3.1-3.05,6.59-5.57,10.95-6.63,5.38-1.31,9.36.5,10.99,5.77,1.24,3.99,1.64,8.24,2.41,12.37ZM107.32,164.04c-.21.08-.41.17-.62.25.89,2.5,1.17,5.49,2.77,7.4,4.94,5.91,13.32,5.03,17.38-1.87,4.44-7.52,5.04-15.7,2.4-24.03-1.04-3.29-3.52-4.9-6.95-5.08-4.27-.23-7.3,1.89-9.6,5.21-3.76,5.44-5.05,11.65-5.39,18.12Z"/>
    <path class="cls-1" d="M151.66,208.73c-8.77-.32-16.3-3.38-20.2-12.22-1.03-2.34-1.31-5.12-1.47-7.72-.17-2.63,1.51-4.2,3.84-4.26,2.51-.06,3.76,1.13,4.12,3.91.84,6.56,7.57,10.92,15.05,9.42,3.3-.66,6.47-1.99,9.68-3.11,2.43-.84,4.78-1.9,7.21-2.73,2.83-.97,4.78-.41,5.94,1.51,1.2,1.99.74,4.19-1.44,6.21-6.3,5.85-13.85,8.61-22.71,8.98Z"/>
    <path class="cls-6" d="M205.4,163.06c17.69.3,23.3,13.33,20.84,24.81-1.63,7.58-7.16,10.87-14.42,12.03-10.59,1.68-21.23-5.18-23.55-15.36-2.51-11.02,5.86-21.51,17.13-21.48ZM208.34,172.69c-.01-.21,0-.88-.08-1.54-.53-3.82-3.18-5.54-6.53-3.64-2.57,1.46-4.79,3.7-6.74,5.97-.68.79-.54,2.98.08,4.03,1.31,2.24,5.99,3.02,9.17,1.97,2.81-.93,4.1-2.92,4.1-6.79Z"/>
    <path class="cls-2" d="M107.32,164.04c.34-6.47,1.63-12.68,5.39-18.12,2.3-3.32,5.33-5.44,9.6-5.21,3.42.18,5.91,1.79,6.95,5.08,2.63,8.33,2.04,16.51-2.4,24.03-4.07,6.9-12.45,7.78-17.38,1.87-1.59-1.91-1.88-4.9-2.77-7.4.21-.08.41-.17.62-.25ZM111.79,157.65c.86-.45,1.68-.62,2.08-1.12,2.15-2.69,4.31-5.39,6.19-8.27.49-.74-.01-2.13-.06-3.22-1.25.07-2.72-.27-3.7.27-2.95,1.64-5.39,8.33-4.51,12.34Z"/>
    <path class="cls-9" d="M208.34,172.69c0,3.87-1.3,5.86-4.1,6.79-3.17,1.05-7.85.27-9.17-1.97-.62-1.05-.76-3.24-.08-4.03,1.94-2.27,4.17-4.51,6.74-5.97,3.35-1.9,6-.18,6.53,3.64.09.65.07,1.32.08,1.54Z"/>
    <path class="cls-5" d="M111.79,157.65c-.88-4,1.56-10.69,4.51-12.34.98-.55,2.45-.21,3.7-.27.05,1.09.55,2.48.06,3.22-1.88,2.88-4.04,5.58-6.19,8.27-.4.5-1.22.68-2.08,1.12Z"/>
  </g>
</svg>