<?xml version="1.0" encoding="UTF-8"?>
<svg id="Calque_2" data-name="Calque 2" xmlns="http://www.w3.org/2000/svg" viewBox="0 0 399.09 504.15">
  <defs>
    <style>
      .cls-1 {
        fill: #9f1c2f;
      }

      .cls-1, .cls-2, .cls-3, .cls-4, .cls-5, .cls-6 {
        stroke-width: 0px;
      }

      .cls-2 {
        fill: #ea4550;
      }

      .cls-3 {
        fill: #3a2325;
      }

      .cls-4 {
        fill: #f7981c;
      }

      .cls-5 {
        fill: #fefefe;
      }

      .cls-6 {
        fill: #fed300;
      }
    </style>
  </defs>
  <g id="Groupe">
    <path class="cls-2" d="M266.61,438.1c4.97,14.5,8.29,29.36,9.96,44.59.2,1.82.35,3.65.4,5.48.22,8.92-1.18,10.96-9.69,13.3-11.01,3.03-22.19,3.35-33.45,1.62-4.61-.71-8.1-3.07-10.71-6.97-4.94-7.38-7-15.81-9.19-24.2-1.93-7.4-1.84-7.3-9.32-7.04-5.74.2-11.5.19-17.24-.09-2.36-.11-3.18.2-3.27,2.77-.27,7.32-.66,14.64-1.78,21.91-.92,5.96-3.81,9.75-9.75,11.41-11.85,3.32-23.81,4.07-35.95,2.2-5.06-.78-8.28-3.77-10.22-8.44-2.82-6.82-3.1-14.06-3.46-21.24-.53-10.51-.22-21.03,1-31.5.16-1.34-.04-2.35-.95-3.33-9.54-10.23-12.23-22.85-12.23-36.24,0-3.1-1-3.27-3.47-3.29-22.3-.2-44.45-1.88-66.16-7.38-9.65-2.44-18.95-5.79-27.12-11.65-14.55-10.44-18.42-29.91-8.56-43.29,5.7-7.74,13.9-11.74,22.84-14.42,4.34-1.3,8.79-2.22,13.31-2.45,2.58-.13,2.95-.7,1.52-2.89-4.39-6.78-7.93-14.01-11.51-21.25-6.63-13.4-5.93-27.08-2.86-41.14,5.82-26.72,14.4-52.46,25.84-77.31,8.35-18.14,21.86-30.89,39.23-40.13,8.95-4.76,17.95-9.46,26.25-15.36,5.43-3.87,9.94-8.54,13.7-14.12,10.43-15.52,23.46-28.77,37.17-41.37,7.12-6.54,14.47-12.81,22.63-18.05,6.23-4,9.33-3.34,13.19,3.07,4.52,7.51,6.54,16.02,9.23,24.25,1.59,4.88,3.03,9.81,5.33,14.42,2.99,5.97,5.22,6.52,10.36,2.43,11.98-9.54,22.67-20.5,33.74-31.03,17.72-16.86,35.05-34.13,54.1-49.53,4-3.23,8.19-6.17,12.57-8.88C335.9.58,340.1.05,344.4,0c5.22-.06,8.4,2.99,10.21,7.53,2,4.99,3.87,10.03,5.58,15.12,4.78,14.24,11.4,27.8,15.5,42.29,7.22,25.52,6.27,50.68-2.92,75.59-3.25,8.82-6.57,17.63-8.71,26.81-.48,2.05-.69,4.11-.58,6.18.18,3.7,2.34,5.44,5.87,4.38,3.02-.91,5.9-2.33,8.82-3.57,9.53-4.08,14.37-1.89,17.36,8.12,4.1,13.71,4.01,27.75,2.92,41.83-1.62,20.91-7.66,41.03-11.36,61.57-4.16,23.07-8.95,46.04-13.19,69.1-1.43,7.76-5.78,13-12.16,16.98-12.22,7.62-25.89,11.35-39.72,14.57-8.55,1.99-17.19,3.49-26.37,4.78,3.16,3.8,6.15,7.27,9,10.86,4.73,5.95,8.95,12.24,11.64,19.42,3.15,8.4,3.76,16.61-3.22,23.51-7.4,7.31-16.16,9.8-26.23,6.23-7.84-2.78-13.71-8.32-19.41-14.07-.93-.33-1.06.1-.82.87Z"/>
    <path class="cls-3" d="M266.61,438.1c-.64-.6-1.28-1.53-.56-2.09.57-.45,1.09.57,1.38,1.22-.27.29-.55.58-.82.87Z"/>
    <path class="cls-6" d="M211.94,382.27c-24.51.05-48.11-3-71.34-8.57-19.97-4.79-36.82-15.56-51.94-29.09-14.99-13.42-27.42-28.89-35.82-47.33-4.08-8.96-6.89-18.24-7.2-28.21-.34-10.75,3.95-20.04,8.96-29.04,11.08-19.9,25.56-37.25,41.12-53.73,15.9-16.83,32.72-32.63,52.17-45.39,2.04-1.34,4.21-2.48,6.28-3.8,8.55-5.45,17.76-5.37,27.25-3.42,15.67,3.21,31.34,6.4,47.02,9.52,6.63,1.32,13.35,1.59,20.08,1.15,7.5-.48,12.67-5.35,18.03-9.79,9.51-7.87,18.44-16.44,28.6-23.5,4.83-3.36,9.86-6.36,15.61-7.92,7.79-2.12,14.15.88,17.33,8.32,2.86,6.68,3.1,13.85,2.91,20.9-.57,21.29-4.71,42.19-7.54,63.24-.83,6.18-1.31,12.4-1.01,18.65.11,2.37.52,4.68,2.2,6.45,10.2,10.76,16.59,23.79,22.29,37.22,5.15,12.12,8.55,24.72,9.08,37.93.53,13.27-3.83,24.96-12.2,35.2-15.07,18.43-34.66,30.26-56.61,38.54-18.42,6.95-37.54,10.62-57.16,12.04-6.23.45-12.46.44-18.12.64Z"/>
    <path class="cls-6" d="M127.32,465.36c-.38-6.96.52-13.03.74-19.14.03-.87-.41-2.57,1.59-1.86,1.48.53,2.72.42,3.27-1.22.54-1.6-.62-2.44-1.74-3.26-7.7-5.58-12-13.35-14.31-22.38-2.09-8.18-1.77-16.49-1.11-24.79.18-2.19.73-4.34.91-6.53.19-2.39,1.06-2.82,3.27-1.86,10.27,4.43,21.01,7.34,32.11,8.56,9.59,1.05,19.23,1.77,28.87,2.33,18.45,1.07,36.92,1.26,55.39.79,16.25-.42,32.49-1.33,48.63-3.48,3.44-.46,5.94.29,8.35,3,6.62,7.43,12.81,15.11,17.24,24.07.7,1.42,1.32,2.89,1.83,4.39,2.23,6.48,2.75,12.8-2.7,18.05-5.69,5.48-12.45,7.79-20.2,5.36-9.68-3.03-16.19-10.24-22.36-17.76-5.21-6.36-9.4-13.4-13.42-20.55-.82-1.46-1.28-3.99-3.85-2.71-2.48,1.24-1.03,3.08-.24,4.68,3.05,6.15,6.58,12.04,10.92,17.34,2.03,2.49,1.91,4.37.13,6.75-1.77,2.37-3.66,4.59-5.9,6.5-1.4,1.2-2.1,2.6-.74,4.07,1.39,1.49,2.61.21,3.8-.68,1.63-1.21,2.84-4.25,4.55-3.64,1.76.63,1.79,3.73,2.39,5.8,4,13.87,7.13,27.9,7.86,42.4.2,4.05-1.49,6.11-5.18,7.17-11.01,3.16-22.14,3.55-33.4,1.79-3.87-.61-6.27-3.17-8.08-6.33-4.74-8.29-6.58-17.56-8.87-26.68-.4-1.61.37-1.84,1.65-2.02,2.78-.4,5.55-.91,8.31-1.43,1.46-.28,3.17-.6,2.85-2.6-.34-2.07-1.97-2.14-3.71-1.81-9.99,1.9-20.07,3.02-30.24,2.93-14.12-.13-28.01-2.08-41.61-5.94-1.56-.44-3.54-1.6-4.29.9-.79,2.62,1.51,2.95,3.22,3.45,7.4,2.14,14.92,3.81,22.59,4.61,2.66.28,3.8,1.04,3.69,4.03-.27,7.7-.31,15.38-2.15,22.94-.68,2.79-2.12,4.56-4.82,5.43-12.12,3.88-24.41,4.7-36.89,2.11-3.11-.64-4.16-3.2-5.12-5.72-2.46-6.5-2.68-13.38-3.19-20.2-.19-2.55-.03-5.13-.03-6.88Z"/>
    <path class="cls-6" d="M103.54,394.55c-22.38-.78-44.68-2.15-66.29-8.7-9.05-2.74-17.8-6.2-24.73-13-11.9-11.66-10.4-30.26,3.25-39.78,9.03-6.3,19.39-8.32,30.15-9.01,2.02-.13,2.74,1.2,3.68,2.48,13.8,18.82,30.11,34.98,50,47.36,3.52,2.19,7.17,4.21,10.88,6.06,1.9.94,2.47,2.12,2.01,4.06-.25,1.07-.42,2.16-.57,3.25q-1,7.36-8.37,7.28Z"/>
    <path class="cls-2" d="M381.99,277.04c-2.18,14.1-4.85,28.1-8.43,41.92-1.8,6.96-3.84,13.87-5.77,20.79-.07.23-.17.46-.25.69-.45,1.22-.6,3.01-2.44,2.56-2.02-.49-1.04-2.17-.73-3.35,2.21-8.37,4.55-16.71,6.71-25.09,3.14-12.16,5.94-24.39,8.02-36.78.06-.36.06-.77.23-1.07.53-.93-.01-2.92,1.81-2.54,1.36.28.76,1.83.84,2.87Z"/>
    <path class="cls-2" d="M346.2,174.98c-2.11-.52-1.66-1.81-1.18-3.15,2.59-7.24,5.11-14.5,7.78-21.71,4.41-11.91,8.19-24.01,11.63-36.23.2-.7.44-1.4.64-2.1.28-.97.66-2.09,1.87-1.81,1.57.37,1.04,1.68.76,2.71-1.59,5.88-3.12,11.79-4.83,17.64-4.07,13.94-8.64,27.72-14.35,41.09-.55,1.3-.92,2.8-2.31,3.55Z"/>
    <path class="cls-2" d="M350.41,137.42c-2.01,10.32-4.15,20.7-8.17,30.56-.35.85-.69,2.18-1.9,1.82-1.6-.48-1.14-2.04-.85-3.13,1.79-6.58,3.72-13.12,5.55-19.69.91-3.28,1.68-6.61,2.57-9.9.24-.9.4-2.16,1.67-2.05,1.34.12,1.12,1.34,1.13,2.38Z"/>
    <path class="cls-2" d="M213.06,90.19c.04,1.58.14,2.81-1.39,2.97-1.53.16-1.76-1.21-1.95-2.19-1.56-8-3.44-15.91-6.18-23.6-.29-.8-.56-1.75.57-2.16,1.15-.41,1.91.25,2.28,1.24.98,2.62,1.97,5.24,2.8,7.91,1.67,5.34,3.01,10.76,3.86,15.83Z"/>
    <path class="cls-2" d="M367.87,317.43c-2.24,9.06-4.65,17.73-8.35,25.99-.41.92-.77,2.34-2.29,1.61-1.2-.58-.65-1.63-.35-2.56,2.71-8.33,5.41-16.67,8.12-25,.34-1.05.6-2.31,2.11-1.88,1.09.31.83,1.32.76,1.85Z"/>
    <path class="cls-2" d="M208.2,91.92c.09.43.16,1.26-.76,1.48-1.09.26-1.45-.61-1.7-1.47-1.42-4.78-2.87-9.56-4.26-14.35-.27-.94-.44-2.08.82-2.45.95-.27,1.6.41,1.91,1.29,1.76,4.94,3.36,9.92,3.98,15.5Z"/>
    <path class="cls-4" d="M297.33,268.21c4.83,6.91,6.88,14.83,7.47,23.01,1.73,24.03-8.7,42.6-26.48,57.85-14.45,12.39-31.56,18-50,20.68-11.54,1.68-23.14,1.72-34.71,1.31-22.19-.77-43.61-4.87-63.12-16.26-13.74-8.03-25.61-18.23-35.82-30.43-10.3-12.31-18.33-25.87-23.13-41.24-2.99-9.57-4.2-19.29-2.33-29.23,1.24-6.61,5.6-11.61,9.25-16.91,7.99-11.6,17.21-22.23,27.78-31.53,18.32-16.12,39.01-27.49,63.73-30.38,18.25-2.14,35.89.07,52.5,7.88,12.96,6.1,22.69,15.88,28.93,28.92-.22,2.07-2.09,2.12-3.44,2.74-14.64,6.71-26.65,16.55-36.21,29.56-7.35,10.01-8.02,20.36-3,31.42,4.09,9.03,10.19,16.37,18.41,21.86,11.1,7.41,22.63,6.5,34.21,1.22,13.53-6.17,24.88-14.95,32.79-27.77.75-1.21,1.38-2.67,3.17-2.71Z"/>
    <path class="cls-5" d="M297.33,268.21c-8.25,14.19-19.98,24.48-34.85,31.3-19.17,8.8-33.98,4.61-47.51-11.57-5.65-6.76-9.45-14.52-10.65-23.38-1.41-10.47,4.01-18.35,10.19-25.75,10.04-12,22.2-21.22,36.88-26.92,19.33-3.52,35.2,5.44,44.46,25.04,4.83,10.23,6.91,20.57,1.47,31.28Z"/>
    <path class="cls-4" d="M270.29,186.06c.1-8.61,4.72-16.29,9.3-23.95,3.98-6.67,9.44-12.12,15.05-17.4.09-.08.17-.18.27-.24,8.04-5.26,10.06-4.4,12.29,3.61,3.9,13.99,5.1,28.03.41,42.09-3.7,11.08-12.77,15.72-23.95,12.29-5.59-1.72-10.95-3.75-12.87-10.18-.54-1.82-.35-3.63-.51-6.21Z"/>
    <path class="cls-6" d="M325.27,248.87c.99.14,1.31,1.01,1.72,1.72,6.93,11.88,12.56,24.27,14.84,37.96.19,1.16.96,2.75-.73,3.06-1.61.29-1.58-1.5-1.88-2.62-3.16-11.55-6.61-22.99-12.26-33.63-.8-1.51-1.63-3-2.44-4.5-.5-.93-.37-1.63.75-1.98Z"/>
    <path class="cls-6" d="M339.17,300.87c.17.92.02,1.8-1.01,2.02-1.32.28-1.59-.75-1.87-1.73-1.51-5.28-2.92-10.59-4.58-15.83-1.36-4.3-3.03-8.51-4.55-12.76-.38-1.06-.8-2.24.54-2.86,1.06-.49,1.52.52,1.86,1.27,4.35,9.59,8.05,19.39,9.61,29.88Z"/>
    <path class="cls-6" d="M52.52,280.9c1.16-.05,1.46.83,1.73,1.61,3.32,9.64,8.33,18.36,14.28,26.59.68.94,2.23,2.26.69,3.45-1.52,1.17-2.43-.62-3.18-1.52-6.93-8.25-11.08-17.94-14.31-28.09-.26-.81-.33-1.73.79-2.04Z"/>
    <path class="cls-6" d="M77.5,315.16c-1.28-.18-1.85-1.03-2.44-1.78-4.93-6.26-8.78-13.16-11.84-20.5-.42-1.01-1.16-2.19.25-2.84,1.5-.69,1.8.81,2.22,1.73,3.21,7.15,7.25,13.79,11.99,20.01.57.75,1.43,1.49.77,2.58-.22.37-.7.59-.96.8Z"/>
    <path class="cls-6" d="M331.31,309.05c-.04.81.31,1.87-.84,2.14-1.16.27-1.39-.77-1.6-1.57-1.46-5.67-3.26-11.22-5.58-16.6-.34-.79-.44-1.76.58-2.2.87-.38,1.36.31,1.68.98,2.69,5.49,4.75,11.2,5.75,17.26Z"/>
    <path class="cls-5" d="M146.29,242.3c-.31,11.5-1.77,25.45-6.54,38.82-4.11,11.52-6.07,15.31-22.23,13.8-11.97-1.12-22.25-6.2-30.56-14.99-7.04-7.43-10.08-16.38-7.86-26.31,5.29-23.7,19.19-40.81,41.38-50.76,9.64-4.32,16.31-1.38,21,8.16,3.17,6.45,4.9,16.7,4.82,31.27Z"/>
    <path class="cls-5" d="M171.62,325.04c-13.19-.02-24.58-13.34-22.42-26.34.8-4.82,5.07-7.56,9.75-6.08,1.96.62,3.84,1.57,5.65,2.58,3.96,2.22,7.82,2.41,11.8.03,2.83-1.69,5.75-3.23,8.69-4.73,2.53-1.29,5.28-2.05,8.12-1.97,8.07.24,12.38,6.51,10,14.99-3.43,12.26-12.58,18.06-24.34,20.58-2.38.51-4.84.63-7.26.93Z"/>
    <path class="cls-1" d="M278.75,246.72c-2.13,16.43-9.21,29.95-24.16,38.18-10.06,5.54-21.88,2.08-30.28-7.94-8.78-10.48-9.76-22.86-2.69-34.6,5-8.31,11.77-14.86,19.99-19.99,16.3-10.15,27.92-1.33,33.84,10.45,2.15,4.28,3.34,8.91,3.3,13.91Z"/>
    <path class="cls-1" d="M136.78,230.71c-.55,13.82-3.08,26.3-8.6,38.07-4.93,10.51-12.29,13.71-23.68,10.46-13.85-3.95-21.25-16.19-17.41-30,4.12-14.81,12.67-26.79,25.27-35.75.69-.49,1.44-.93,2.19-1.34,10.86-5.91,18.97-2.16,21.29,9.96.59,3.1.7,6.3.94,8.59Z"/>
    <path class="cls-5" d="M261.01,243.71c-2.27.7-3.63,1.42-5.04,1.52-6.76.45-10.83,4.31-14.06,9.93-2.33,4.07-5.16,7.92-9.12,11.63-.44-4.82.7-8.91,1.09-13.04.05-.48.18-.96.31-1.43,1.07-3.73,1.05-6.78-3.87-7.58-1.1-.18-3-.68-2.75-2.39.18-1.29,1.77-1.73,2.93-1.8,7.09-.41,11.12-4.75,14.56-10.41,2.09-3.44,4.48-6.9,8.47-9.64-.34,5.59-2.04,10.26-3.77,14.86-.93,2.46-.45,3.37,2,4.09,2.96.87,5.98,1.84,9.25,4.27Z"/>
    <path class="cls-5" d="M102.8,261.17c.77-5.46,1.36-10.52,2.24-15.52.52-2.97.46-5.2-3.19-5.85-1.52-.27-3.71-.96-3.68-2.5.04-1.94,2.54-2.35,4.01-2.41,6.28-.24,9.63-4.1,12.67-8.95,2.4-3.83,5.06-7.62,9.31-10.92-.39,5.82-2.12,10.49-3.82,15.13-.81,2.21-.62,3.14,1.76,3.87,3.06.94,6.25,1.77,9.03,4.28-3.37,1.68-6.71,2.24-10,2.93-2.15.45-3.66,1.37-4.92,3.27-3.09,4.68-6.41,9.21-9.74,13.73-.75,1.02-1.38,2.33-3.67,2.94Z"/>
  </g>
</svg>